<svg width="46" height="46" viewBox="0 0 46 46" fill="none" xmlns="http://www.w3.org/2000/svg">
<circle cx="22.8061" cy="22.7947" r="22.2173" fill="#7859BC"/>
<g clip-path="url(#clip0_412_2286)">
<path d="M29.7777 15.8162C27.6459 15.8162 25.8857 17.4372 25.6646 19.5113C27.2118 20.4712 28.2445 22.1852 28.2445 24.1361V26.9248C28.2445 27.9421 27.7861 28.8773 27.0353 29.5003V33.2457C27.0353 33.6052 27.3267 33.8966 27.6862 33.8966H31.8693C32.2288 33.8966 32.5202 33.6052 32.5202 33.2457V26.7723C33.3299 26.4998 33.9145 25.7336 33.9145 24.8332V19.953C33.9145 17.672 32.0587 15.8162 29.7777 15.8162Z" fill="white"/>
<path d="M29.7779 15.8162C30.9184 15.8162 31.8463 14.8883 31.8463 13.7478C31.7423 11.0075 27.8131 11.0083 27.7095 13.7478C27.7095 14.8883 28.6373 15.8162 29.7779 15.8162Z" fill="white"/>
<path d="M24.8743 17.9308C24.8743 16.7903 23.9464 15.8624 22.8059 15.8624C20.0656 15.9664 20.0664 19.8957 22.8059 19.9993C23.9464 19.9993 24.8743 19.0714 24.8743 17.9308Z" fill="white"/>
<path d="M22.8056 19.9993C20.6737 19.9993 18.9135 21.6203 18.6924 23.6944C20.2396 24.6543 21.2724 26.3683 21.2724 28.3192V29.0163C21.2724 30.0336 20.8139 30.9688 20.0631 31.5919V33.2457C20.0631 33.6052 20.3546 33.8966 20.714 33.8966H24.8971C25.2566 33.8966 25.548 33.6052 25.548 33.2457V28.8639C26.3577 28.5914 26.9424 27.8252 26.9424 26.9248V24.1361C26.9424 21.855 25.0866 19.9993 22.8056 19.9993Z" fill="white"/>
<path d="M15.8341 24.1824C13.5452 24.1824 11.6973 26.035 11.6973 28.3192V29.0163C11.6973 29.9167 12.2819 30.683 13.0916 30.9554V33.2457C13.0916 33.6052 13.383 33.8966 13.7425 33.8966H17.9256C18.2851 33.8966 18.5765 33.6052 18.5765 33.2457V30.9554C19.3862 30.683 19.9708 29.9167 19.9708 29.0163V28.3192C19.9709 26.0307 18.1188 24.1824 15.8341 24.1824Z" fill="white"/>
<path d="M15.834 24.1823C16.9745 24.1823 17.9025 23.2545 17.9025 22.1139C17.7985 19.3737 13.8692 19.3744 13.7656 22.114C13.7657 23.2545 14.6935 24.1823 15.834 24.1823Z" fill="white"/>
</g>
<defs>
<clipPath id="clip0_412_2286">
<rect width="22.2173" height="22.2173" fill="white" transform="translate(11.6973 11.6861)"/>
</clipPath>
</defs>
</svg>
