<svg width="45" height="45" viewBox="0 0 45 45" fill="none" xmlns="http://www.w3.org/2000/svg">
<circle cx="22.0828" cy="22.0828" r="22.0828" fill="#7859BC"/>
<g clip-path="url(#clip0_412_2615)">
<path d="M22.0828 16.5621C23.1042 16.5621 23.9231 15.734 23.9231 14.7219C23.9231 14.3723 23.831 14.0502 23.6562 13.7742L22.0828 11.0414L20.5094 13.7742C20.3346 14.0502 20.2426 14.3723 20.2426 14.7219C20.2426 15.734 21.0707 16.5621 22.0828 16.5621ZM26.3154 25.7541L25.3308 24.7696L24.3371 25.7541C23.141 26.9503 21.0431 26.9595 19.8377 25.7541L18.8532 24.7696L17.8503 25.7541C17.2522 26.3522 16.4517 26.6834 15.6052 26.6834C14.9335 26.6834 14.317 26.4718 13.8018 26.1222V30.3639C13.8018 30.87 14.2158 31.284 14.7219 31.284H29.4438C29.9498 31.284 30.3639 30.87 30.3639 30.3639V26.1222C29.8486 26.4718 29.2321 26.6834 28.5605 26.6834C27.7139 26.6834 26.9134 26.3522 26.3154 25.7541ZM27.6035 19.3225H23.0029V17.4823H21.1627V19.3225H16.5621C15.0347 19.3225 13.8018 20.5555 13.8018 22.0828V23.4998C13.8018 24.4936 14.6115 25.3033 15.6052 25.3033C16.0837 25.3033 16.5437 25.1192 16.875 24.7788L18.844 22.8189L20.8039 24.7788C21.4847 25.4597 22.6717 25.4597 23.3526 24.7788L25.3216 22.8189L27.2815 24.7788C27.6219 25.1192 28.0728 25.3033 28.5513 25.3033C29.545 25.3033 30.3547 24.4936 30.3547 23.4998V22.0828C30.3639 20.5555 29.1309 19.3225 27.6035 19.3225Z" fill="white"/>
</g>
<defs>
<clipPath id="clip0_412_2615">
<rect width="22.0828" height="22.0828" fill="white" transform="translate(11.0415 11.0414)"/>
</clipPath>
</defs>
</svg>
