<svg width="45" height="45" viewBox="0 0 45 45" fill="none" xmlns="http://www.w3.org/2000/svg">
<circle cx="22.0828" cy="22.5888" r="22.0828" fill="#F27047"/>
<g clip-path="url(#clip0_412_2672)">
<path d="M16.6869 14.6916C16.6869 12.998 18.0599 11.625 19.7537 11.625C21.4473 11.625 22.8204 12.998 22.8204 14.6916C22.8204 16.3852 21.4473 17.7581 19.7537 17.7581C18.0599 17.7582 16.6869 16.3852 16.6869 14.6916ZM21.2275 19.8474C21.2582 19.1796 21.4881 18.5616 21.8579 18.0507C21.5984 17.9963 21.3301 17.9674 21.0549 17.9674H18.4529C18.1785 17.9674 17.9106 17.9961 17.6524 18.0498C18.0459 18.5956 18.2814 19.2623 18.2852 19.984C18.7636 19.7209 19.3125 19.5711 19.8955 19.5711C20.3685 19.5711 20.8187 19.6696 21.2275 19.8474ZM21.7466 20.1226C22.6373 20.6812 23.262 21.626 23.3762 22.7232C23.7392 22.8928 24.1425 22.9907 24.5698 22.9907C26.1303 22.9907 27.3952 21.7257 27.3952 20.1653C27.3952 18.6046 26.1303 17.3399 24.5698 17.3399C23.0236 17.3399 21.77 18.5822 21.7466 20.1226ZM19.8955 25.9079C21.4557 25.9079 22.7207 24.6425 22.7207 23.0825C22.7207 21.5223 21.4557 20.2571 19.8955 20.2571C18.3351 20.2571 17.0696 21.5222 17.0696 23.0825C17.0697 24.6425 18.3351 25.9079 19.8955 25.9079ZM21.094 26.1002H18.6968C16.7021 26.1002 15.0789 27.7232 15.0789 29.7182V32.6503L15.0866 32.6962L15.2884 32.7589C17.1921 33.3535 18.8459 33.5524 20.2073 33.5524C22.8658 33.5524 24.4073 32.7943 24.5023 32.7458L24.6911 32.6502H24.7111V29.7181C24.7112 27.7232 23.0889 26.1002 21.094 26.1002ZM25.7689 23.1835H23.3897C23.3638 24.1355 22.9576 24.9928 22.315 25.609C24.0881 26.1363 25.3854 27.7804 25.3854 29.7226V30.6261C27.7341 30.5396 29.0878 29.8743 29.177 29.8295L29.3658 29.7334H29.3859V26.8008C29.3861 24.8064 27.7631 23.1835 25.7689 23.1835ZM26.4049 17.2796C27.2957 17.8383 27.9203 18.7832 28.0342 19.8804C28.3972 20.05 28.8005 20.1477 29.2278 20.1477C30.7887 20.1477 32.0534 18.8829 32.0534 17.3226C32.0534 15.7619 30.7886 14.4973 29.2278 14.4973C27.6818 14.4971 26.4284 15.7396 26.4049 17.2796ZM30.4267 20.3406H28.0479C28.0221 21.2925 27.6159 22.1498 26.9733 22.766C28.7464 23.2931 30.0437 24.9374 30.0437 26.8796V27.7831C32.3921 27.6968 33.7461 27.0316 33.8353 26.9864L34.0239 26.8907H34.0442V23.9577C34.0444 21.9634 32.4214 20.3406 30.4267 20.3406ZM14.938 22.9908C15.4907 22.9908 16.0047 22.8293 16.4405 22.5544C16.5792 21.6511 17.0634 20.8617 17.755 20.3242C17.7579 20.2712 17.7627 20.2189 17.7627 20.1653C17.7627 18.6047 16.4975 17.3399 14.938 17.3399C13.3771 17.3399 12.1124 18.6046 12.1124 20.1653C12.1124 21.726 13.377 22.9908 14.938 22.9908ZM17.4753 25.609C16.8358 24.9957 16.4309 24.1432 16.4011 23.1967C16.3131 23.1901 16.2258 23.1835 16.1359 23.1835H13.7389C11.744 23.1835 10.1211 24.8064 10.1211 26.801V29.7334L10.1285 29.7791L10.3306 29.8421C11.8574 30.3195 13.2206 30.539 14.4046 30.6076V29.7223C14.4049 27.7804 15.7018 26.136 17.4753 25.609Z" fill="white"/>
</g>
<defs>
<clipPath id="clip0_412_2672">
<rect width="23.9231" height="23.9231" fill="white" transform="translate(10.1211 10.6272)"/>
</clipPath>
</defs>
</svg>
