<svg width="49" height="49" viewBox="0 0 49 49" fill="none" xmlns="http://www.w3.org/2000/svg">
<circle cx="24.4995" cy="24.532" r="24" fill="#58C6BF"/>
<g clip-path="url(#clip0_525_528)">
<path d="M20.1348 32.9132V19.7428H20.7335C20.7335 18.745 21.0827 17.897 21.7811 17.1985C22.4795 16.5001 23.3276 16.1509 24.3254 16.1509C25.3231 16.1509 26.1712 16.5001 26.8697 17.1985C27.5681 17.897 27.9173 18.745 27.9173 19.7428H28.516V32.9132H20.1348ZM22.5294 19.7428H26.1214C26.1214 19.224 25.9517 18.7949 25.6125 18.4557C25.2733 18.1165 24.8442 17.9468 24.3254 17.9468C23.8066 17.9468 23.3775 18.1165 23.0383 18.4557C22.699 18.7949 22.5294 19.224 22.5294 19.7428ZM30.3119 32.9132V19.7428H31.5092C32.1678 19.7428 32.7317 19.9775 33.201 20.4468C33.6704 20.9162 33.9047 21.4797 33.9039 22.1374V30.5186C33.9039 31.1771 33.6696 31.741 33.201 32.2104C32.7325 32.6797 32.1686 32.914 31.5092 32.9132H30.3119ZM17.1415 32.9132C16.483 32.9132 15.9195 32.6789 15.4509 32.2104C14.9824 31.7418 14.7477 31.1779 14.7469 30.5186V22.1374C14.7469 21.4789 14.9816 20.9154 15.4509 20.4468C15.9203 19.9783 16.4838 19.7436 17.1415 19.7428H18.3388V32.9132H17.1415ZM13.5496 37.7024C13.2104 37.7024 12.9262 37.5875 12.6971 37.3576C12.468 37.1277 12.3531 36.8436 12.3523 36.5051C12.3515 36.1667 12.4664 35.8825 12.6971 35.6526C12.9278 35.4228 13.212 35.3078 13.5496 35.3078H35.1012C35.4404 35.3078 35.725 35.4228 35.9548 35.6526C36.1847 35.8825 36.2993 36.1667 36.2985 36.5051C36.2977 36.8436 36.1827 37.1281 35.9536 37.3588C35.7246 37.5895 35.4404 37.704 35.1012 37.7024H13.5496Z" fill="white"/>
</g>
<defs>
<clipPath id="clip0_525_528">
<rect width="28.7354" height="20.3542" fill="white" transform="translate(10.1318 14.355)"/>
</clipPath>
</defs>
</svg>
