<svg width="48" height="48" viewBox="0 0 48 48" fill="none" xmlns="http://www.w3.org/2000/svg">
<circle cx="24" cy="24" r="24" fill="#59B6C9"/>
<path fill-rule="evenodd" clip-rule="evenodd" d="M23.1511 35.5115C22.9176 35.3069 22.5866 35.0079 22.1904 34.626C21.399 33.8631 20.3432 32.7649 19.2859 31.4227C17.1903 28.7628 15 25.0336 15 21C15 16.0294 19.0294 12 24 12C28.9705 12 33 16.0294 33 21C33 25.0336 30.8098 28.7628 28.7141 31.4227C27.6568 32.7649 26.601 33.8631 25.8096 34.626C25.4135 35.0079 25.0824 35.3069 24.8489 35.5115C24.606 35.7245 24.346 36 24 36C23.6545 36 23.3937 35.7243 23.1511 35.5115ZM24 15.75C21.1005 15.75 18.75 18.1005 18.75 21C18.75 23.8995 21.1005 26.25 24 26.25C26.8995 26.25 29.25 23.8995 29.25 21C29.25 18.1005 26.8995 15.75 24 15.75Z" fill="white"/>
</svg>
