<svg width="48" height="48" viewBox="0 0 48 48" fill="none" xmlns="http://www.w3.org/2000/svg">
<circle cx="24" cy="24" r="24" fill="#4758F2"/>
<g clip-path="url(#clip0_449_864)">
<path d="M18.5 20.5625C18.5 19.1038 19.0795 17.7049 20.1109 16.6734C21.1424 15.642 22.5413 15.0625 24 15.0625C25.4587 15.0625 26.8576 15.642 27.8891 16.6734C28.9205 17.7049 29.5 19.1038 29.5 20.5625C29.5 22.0212 28.9205 23.4201 27.8891 24.4516C26.8576 25.483 25.4587 26.0625 24 26.0625C22.5413 26.0625 21.1424 25.483 20.1109 24.4516C19.0795 23.4201 18.5 22.0212 18.5 20.5625ZM29.8352 15.75C28.4473 14.0699 26.3504 13 24 13C21.6496 13 19.5527 14.0699 18.1648 15.75H15.75C14.2332 15.75 13 16.9832 13 18.5V32.25C13 33.7668 14.2332 35 15.75 35H32.25C33.7668 35 35 33.7668 35 32.25V18.5C35 16.9832 33.7668 15.75 32.25 15.75H29.8352ZM25.7188 22.625C25.7188 22.1695 25.5426 21.757 25.2504 21.4477L26.6941 18.0832C26.8445 17.7352 26.6812 17.3313 26.3332 17.1809C25.9852 17.0305 25.5812 17.1937 25.4309 17.5418L23.9871 20.9062C23.0418 20.9105 22.2812 21.6797 22.2812 22.625C22.2812 23.5746 23.0504 24.3438 24 24.3438C24.9496 24.3438 25.7188 23.5746 25.7188 22.625Z" fill="white"/>
</g>
<defs>
<clipPath id="clip0_449_864">
<rect width="22" height="22" fill="white" transform="translate(13 13)"/>
</clipPath>
</defs>
</svg>
