<svg width="48" height="48" viewBox="0 0 48 48" fill="none" xmlns="http://www.w3.org/2000/svg">
<rect width="48" height="48" rx="12" fill="white"/>
<path d="M26 24C26 23.6044 25.8827 23.2178 25.6629 22.8889C25.4432 22.56 25.1308 22.3036 24.7654 22.1522C24.3999 22.0009 23.9978 21.9613 23.6098 22.0384C23.2219 22.1156 22.8655 22.3061 22.5858 22.5858C22.3061 22.8655 22.1156 23.2219 22.0384 23.6098C21.9613 23.9978 22.0009 24.3999 22.1522 24.7654C22.3036 25.1308 22.56 25.4432 22.8889 25.6629C23.2178 25.8827 23.6044 26 24 26C24.5304 26 25.0391 25.7893 25.4142 25.4142C25.7893 25.0391 26 24.5304 26 24ZM26 17C26 16.6044 25.8827 16.2178 25.6629 15.8889C25.4432 15.56 25.1308 15.3036 24.7654 15.1522C24.3999 15.0009 23.9978 14.9613 23.6098 15.0384C23.2219 15.1156 22.8655 15.3061 22.5858 15.5858C22.3061 15.8655 22.1156 16.2219 22.0384 16.6098C21.9613 16.9978 22.0009 17.3999 22.1522 17.7654C22.3036 18.1308 22.56 18.4432 22.8889 18.6629C23.2178 18.8827 23.6044 19 24 19C24.5304 19 25.0391 18.7893 25.4142 18.4142C25.7893 18.0391 26 17.5304 26 17ZM26 31C26 30.6044 25.8827 30.2178 25.6629 29.8889C25.4432 29.56 25.1308 29.3036 24.7654 29.1522C24.3999 29.0009 23.9978 28.9613 23.6098 29.0384C23.2219 29.1156 22.8655 29.3061 22.5858 29.5858C22.3061 29.8655 22.1156 30.2219 22.0384 30.6098C21.9613 30.9978 22.0009 31.3999 22.1522 31.7654C22.3036 32.1308 22.56 32.4432 22.8889 32.6629C23.2178 32.8827 23.6044 33 24 33C24.5304 33 25.0391 32.7893 25.4142 32.4142C25.7893 32.0391 26 31.5304 26 31Z" fill="#4B164C"/>
</svg>
