<svg width="10" height="9" viewBox="0 0 10 9" fill="none" xmlns="http://www.w3.org/2000/svg">
<path d="M6.08185 7.33871C6.08185 8.24067 6.81304 8.97186 7.715 8.97186C8.61696 8.97186 9.34814 8.24067 9.34814 7.33871C9.34814 6.43675 8.61696 5.70557 7.715 5.70557C6.81304 5.70557 6.08185 6.43675 6.08185 7.33871Z" fill="#14152B"/>
<path d="M6.08185 1.92636C6.08185 2.82832 6.81304 3.5595 7.715 3.5595C8.61696 3.5595 9.34814 2.82832 9.34814 1.92636C9.34814 1.0244 8.61696 0.293213 7.715 0.293213C6.81304 0.293213 6.08185 1.0244 6.08185 1.92636Z" fill="#14152B"/>
<path d="M0.669257 7.33871C0.669257 8.24067 1.40044 8.97186 2.3024 8.97186C3.20436 8.97186 3.93555 8.24067 3.93555 7.33871C3.93555 6.43675 3.20436 5.70557 2.3024 5.70557C1.40044 5.70557 0.669257 6.43675 0.669257 7.33871Z" fill="#14152B"/>
<path d="M0.669257 1.92636C0.669257 2.82832 1.40044 3.5595 2.3024 3.5595C3.20436 3.5595 3.93555 2.82832 3.93555 1.92636C3.93555 1.0244 3.20436 0.293213 2.3024 0.293213C1.40044 0.293213 0.669257 1.0244 0.669257 1.92636Z" fill="#14152B"/>
</svg>
