<svg width="48" height="48" viewBox="0 0 48 48" fill="none" xmlns="http://www.w3.org/2000/svg">
<circle cx="24" cy="24" r="24" fill="#7859BC"/>
<g clip-path="url(#clip0_686_836)">
<path d="M31.5312 16.4614C29.2283 16.4614 27.3269 18.2125 27.088 20.4531C28.7594 21.49 29.875 23.3415 29.875 25.449V28.4615C29.875 29.5604 29.3798 30.5706 28.5687 31.2436V35.2896C28.5687 35.6779 28.8836 35.9927 29.2719 35.9927H33.7906C34.1789 35.9927 34.4937 35.6779 34.4937 35.2896V28.2968C35.3684 28.0024 36 27.1746 36 26.2021V20.9302C36 18.4661 33.9953 16.4614 31.5312 16.4614Z" fill="white"/>
<path d="M31.5313 16.4615C32.7633 16.4615 33.7657 15.4592 33.7657 14.2271C33.6533 11.267 29.4088 11.2678 29.2969 14.2272C29.2969 15.4592 30.2992 16.4615 31.5313 16.4615Z" fill="white"/>
<path d="M26.2344 18.7459C26.2344 17.5138 25.232 16.5115 24 16.5115C21.0398 16.6238 21.0406 20.8684 24 20.9803C25.232 20.9803 26.2344 19.9779 26.2344 18.7459Z" fill="white"/>
<path d="M24 20.9802C21.6971 20.9802 19.7956 22.7313 19.5568 24.9719C21.2282 26.0088 22.3438 27.8603 22.3438 29.9678V30.7209C22.3438 31.8197 21.8485 32.83 21.0375 33.503V35.2896C21.0375 35.6779 21.3523 35.9927 21.7406 35.9927H26.2594C26.6477 35.9927 26.9625 35.6779 26.9625 35.2896V30.5562C27.8371 30.2619 28.4687 29.4341 28.4687 28.4615V25.449C28.4687 22.9849 26.4641 20.9802 24 20.9802Z" fill="white"/>
<path d="M16.4687 25.499C13.9963 25.499 12 27.5003 12 29.9678V30.7209C12 31.6935 12.6316 32.5212 13.5062 32.8156V35.2896C13.5062 35.6779 13.821 35.9927 14.2094 35.9927H18.7281C19.1164 35.9927 19.4312 35.6779 19.4312 35.2896V32.8156C20.3059 32.5212 20.9375 31.6935 20.9375 30.7209V29.9678C20.9375 27.4957 18.9368 25.499 16.4687 25.499Z" fill="white"/>
<path d="M16.4688 25.4991C17.7008 25.4991 18.7032 24.4968 18.7032 23.2647C18.5908 20.3046 14.3463 20.3054 14.2344 23.2648C14.2344 24.4968 15.2368 25.4991 16.4688 25.4991Z" fill="white"/>
</g>
<defs>
<clipPath id="clip0_686_836">
<rect width="24" height="24" fill="white" transform="translate(12 12)"/>
</clipPath>
</defs>
</svg>
