<svg width="28" height="22" viewBox="0 0 28 22" fill="none" xmlns="http://www.w3.org/2000/svg">
<path d="M1.64062 12.4771V19.2032C1.64062 20.5602 2.74455 21.6641 4.10156 21.6641H23.8984C25.2555 21.6641 26.3594 20.5602 26.3594 19.2032V12.5416C23.4153 14.2107 19.1144 14.79 16.4609 14.9923V15.9219C16.4609 16.3753 16.094 16.7422 15.6406 16.7422H12.3594C11.906 16.7422 11.5391 16.3753 11.5391 15.9219V14.9982C8.30878 14.7552 4.35198 14.0331 1.64062 12.4771Z" fill="black" fill-opacity="0.7"/>
<path d="M11.5391 13.3508V12.6406C11.5391 12.1872 11.906 11.8203 12.3594 11.8203H15.6406C16.094 11.8203 16.4609 12.1872 16.4609 12.6406V13.3569C21.3323 12.976 28 11.451 28 7.71875V6.07812C28 4.72111 26.8961 3.61719 25.5391 3.61719H18.9219V1.15625C18.9219 0.702836 18.555 0.335938 18.1016 0.335938H9.89844C9.44502 0.335938 9.07812 0.702836 9.07812 1.15625V3.61719H2.46094C1.10392 3.61719 0 4.72111 0 6.07812V7.71875C0 11.4114 6.64743 12.9568 11.5391 13.3508ZM10.7188 1.97656H17.2812V3.61719H10.7188V1.97656Z" fill="black" fill-opacity="0.7"/>
<path d="M13.1797 13.4609H14.8203V15.1016H13.1797V13.4609Z" fill="black" fill-opacity="0.7"/>
</svg>
