<svg width="48" height="48" viewBox="0 0 48 48" fill="none" xmlns="http://www.w3.org/2000/svg">
<circle cx="24" cy="24" r="24" fill="#7859BC"/>
<g clip-path="url(#clip0_687_2726)">
<path d="M24 18C25.11 18 26 17.1 26 16C26 15.62 25.9 15.27 25.71 14.97L24 12L22.29 14.97C22.1 15.27 22 15.62 22 16C22 17.1 22.9 18 24 18ZM28.6 27.99L27.53 26.92L26.45 27.99C25.15 29.29 22.87 29.3 21.56 27.99L20.49 26.92L19.4 27.99C18.75 28.64 17.88 29 16.96 29C16.23 29 15.56 28.77 15 28.39V33C15 33.55 15.45 34 16 34H32C32.55 34 33 33.55 33 33V28.39C32.44 28.77 31.77 29 31.04 29C30.12 29 29.25 28.64 28.6 27.99ZM30 21H25V19H23V21H18C16.34 21 15 22.34 15 24V25.54C15 26.62 15.88 27.5 16.96 27.5C17.48 27.5 17.98 27.3 18.34 26.93L20.48 24.8L22.61 26.93C23.35 27.67 24.64 27.67 25.38 26.93L27.52 24.8L29.65 26.93C30.02 27.3 30.51 27.5 31.03 27.5C32.11 27.5 32.99 26.62 32.99 25.54V24C33 22.34 31.66 21 30 21Z" fill="white"/>
</g>
<defs>
<clipPath id="clip0_687_2726">
<rect width="24" height="24" fill="white" transform="translate(12 12)"/>
</clipPath>
</defs>
</svg>
