<svg width="28" height="28" viewBox="0 0 28 28" fill="none" xmlns="http://www.w3.org/2000/svg">
<g clip-path="url(#clip0_624_10322)">
<path d="M25.6666 23.3334H2.33331V21H3.49998V12.8695C3.49998 7.05021 8.20165 2.33337 14 2.33337C19.7983 2.33337 24.5 7.05021 24.5 12.8695V21H25.6666V23.3334ZM5.83331 21H22.1666V12.8695C22.1666 8.33937 18.5103 4.66671 14 4.66671C9.48965 4.66671 5.83331 8.33937 5.83331 12.8695V21ZM11.0833 24.5H16.9166C16.9166 25.2736 16.6094 26.0155 16.0624 26.5624C15.5154 27.1094 14.7735 27.4167 14 27.4167C13.2264 27.4167 12.4846 27.1094 11.9376 26.5624C11.3906 26.0155 11.0833 25.2736 11.0833 24.5Z" fill="#4B164C"/>
</g>
<defs>
<clipPath id="clip0_624_10322">
<rect width="28" height="28" fill="white"/>
</clipPath>
</defs>
</svg>
