<svg width="48" height="48" viewBox="0 0 48 48" fill="none" xmlns="http://www.w3.org/2000/svg">
<circle cx="24" cy="24" r="24" fill="#F2AB47"/>
<path d="M18.1359 15.4173C18.1359 13.5767 19.628 12.0845 21.4689 12.0845C23.3095 12.0845 24.8018 13.5767 24.8018 15.4173C24.8018 17.2579 23.3095 18.75 21.4689 18.75C19.628 18.7501 18.1359 17.2579 18.1359 15.4173ZM23.0706 21.0207C23.104 20.2949 23.3538 19.6232 23.7558 19.068C23.4737 19.0089 23.1822 18.9775 22.883 18.9775H20.0552C19.7569 18.9775 19.4658 19.0086 19.1851 19.067C19.6129 19.6603 19.8687 20.3848 19.8729 21.1692C20.3928 20.8832 20.9894 20.7204 21.623 20.7204C22.1371 20.7204 22.6264 20.8275 23.0706 21.0207ZM23.6348 21.3198C24.6028 21.9269 25.2817 22.9537 25.4059 24.1462C25.8003 24.3305 26.2387 24.4369 26.7031 24.4369C28.3991 24.4369 29.7737 23.0621 29.7737 21.3661C29.7737 19.67 28.3991 18.2955 26.7031 18.2955C25.0226 18.2955 23.6603 19.6457 23.6348 21.3198ZM21.623 27.6073C23.3187 27.6073 24.6934 26.2321 24.6934 24.5367C24.6934 22.841 23.3187 21.466 21.623 21.466C19.9271 21.466 18.5518 22.8409 18.5518 24.5367C18.5519 26.2321 19.9271 27.6073 21.623 27.6073ZM22.9255 27.8163H20.3202C18.1524 27.8163 16.3883 29.5802 16.3883 31.7484V34.9351L16.3966 34.985L16.6159 35.0532C18.6848 35.6993 20.4823 35.9155 21.9619 35.9155C24.8511 35.9155 26.5265 35.0916 26.6297 35.0388L26.8349 34.935H26.8567V31.7483C26.8567 29.5802 25.0937 27.8163 22.9255 27.8163ZM28.0063 24.6465H25.4205C25.3924 25.6811 24.9509 26.6128 24.2526 27.2825C26.1796 27.8555 27.5895 29.6424 27.5895 31.7532V32.7351C30.1421 32.6411 31.6133 31.9181 31.7102 31.8693L31.9155 31.765H31.9373V28.5777C31.9376 26.4102 30.1736 24.6465 28.0063 24.6465ZM28.6975 18.23C29.6656 18.8372 30.3444 19.8641 30.4683 21.0565C30.8628 21.2409 31.3011 21.347 31.7655 21.347C33.4619 21.347 34.8364 19.9724 34.8364 18.2767C34.8364 16.5805 33.4618 15.2061 31.7655 15.2061C30.0853 15.2059 28.7231 16.5563 28.6975 18.23ZM33.0685 21.5566H30.4832C30.4551 22.5913 30.0136 23.523 29.3153 24.1926C31.2423 24.7655 32.6522 26.5526 32.6522 28.6634V29.6453C35.2045 29.5515 36.6761 28.8286 36.773 28.7795L36.9779 28.6754H37V25.4878C37.0003 23.3204 35.2364 21.5566 33.0685 21.5566ZM16.2351 24.4369C16.8358 24.4369 17.3944 24.2615 17.8681 23.9627C18.0187 22.981 18.5451 22.123 19.2966 21.5389C19.2998 21.4813 19.3051 21.4244 19.3051 21.3662C19.3051 19.67 17.93 18.2955 16.2351 18.2955C14.5386 18.2955 13.1642 19.67 13.1642 21.3662C13.1642 23.0624 14.5386 24.4369 16.2351 24.4369ZM18.9927 27.2825C18.2977 26.616 17.8576 25.6894 17.8252 24.6608C17.7296 24.6536 17.6347 24.6465 17.537 24.6465H14.9319C12.7638 24.6465 11 26.4102 11 28.578V31.765L11.0081 31.8146L11.2277 31.8831C12.8871 32.402 14.3686 32.6405 15.6554 32.715V31.7529C15.6557 29.6424 17.0652 27.8552 18.9927 27.2825Z" fill="white"/>
</svg>
