<svg width="48" height="48" viewBox="0 0 48 48" fill="none" xmlns="http://www.w3.org/2000/svg">
<circle cx="24" cy="24" r="24" fill="#59B6C9"/>
<g clip-path="url(#clip0_686_863)">
<path d="M18.4505 24.7702C20.7801 24.7702 22.667 22.8823 22.667 20.5498C22.667 19.0935 23.1757 17.7636 22.0541 17.0056C21.3818 16.549 18.4236 16.3333 17.5485 16.3333C16.5088 16.3333 15.1575 17.1805 14.4229 17.8026C13.5068 18.5764 14.2294 19.2581 14.2294 20.5498C14.2294 22.8823 16.1154 24.7702 18.4505 24.7702ZM15.51 20.1369C16.2837 19.9956 16.8101 20.2513 16.8101 20.2513L18.1064 19.6208C18.1064 19.6208 17.448 20.574 18.0413 20.2513C19.3572 19.8068 20.8312 19.9928 21.5836 20.1397C21.6096 20.3043 21.6329 20.4727 21.6329 20.6484C21.6329 22.3847 20.2547 23.789 18.5454 23.789C16.8398 23.789 15.4598 22.3847 15.4598 20.6484C15.4579 20.4727 15.483 20.3034 15.51 20.1369Z" fill="white"/>
<path d="M25.696 25.4547C25.4616 23.3232 26.4799 22.037 26.8724 21.625C27.235 23.8319 29.1396 25.5254 31.4459 25.5254C33.6313 25.5254 35.4559 24.0039 35.9535 21.9673C36.3264 22.6331 36.9615 23.9937 36.8072 25.4547C40.6833 25.4222 38.7731 20.9926 36.0557 20.5062C36.0362 20.2802 36.0176 20.0533 35.9674 19.8357C35.8065 18.4351 34.5529 15.5894 30.9633 15.6768C27.8646 15.7484 27.1876 18.0789 27.0286 19.5C26.9179 19.8497 26.8491 20.2151 26.824 20.5927C22.7898 21.2958 23.2343 25.3859 25.696 25.4547ZM29.2661 19.5604C29.2661 19.5604 29.6641 19.6962 29.6641 20.9898C30.3476 21.2298 31.5371 18.9801 31.5371 18.9801V20.7517C32.2978 20.9573 34.6794 20.6829 34.6794 20.6829L34.7687 20.7601C34.7705 20.7982 34.7798 20.8345 34.7798 20.8736C34.7798 22.714 33.2845 24.2095 31.4468 24.2095C29.6343 24.2095 28.1594 22.7522 28.1194 20.9461C28.7788 20.7062 29.2661 19.5604 29.2661 19.5604Z" fill="white"/>
<path d="M32.4782 26.1364H30.5224H28.8848L25.3128 30.4385L21.4162 25.6519H15.8392L10 32.0614L11.2248 33.3252L15.4059 29.7568L15.497 32.5431L21.937 32.4445L21.9547 29.8852L24.5865 32.5896L25.1305 33.3252L25.2096 33.2304L25.2979 33.3197L25.5304 32.8649L28.709 29.2249L28.9145 30.8477L28.2738 32.2725L34.7733 32.1637L33.9103 30.8477L34.0712 28.8501L36.8695 32.5998L38.7275 32.1395L34.2879 26.1364H32.4782Z" fill="white"/>
</g>
<defs>
<clipPath id="clip0_686_863">
<rect width="29" height="29" fill="white" transform="translate(10 10)"/>
</clipPath>
</defs>
</svg>
