<svg width="48" height="48" viewBox="0 0 48 48" fill="none" xmlns="http://www.w3.org/2000/svg">
<circle cx="24" cy="24" r="24" fill="#9C58C6"/>
<g clip-path="url(#clip0_687_2821)">
<path d="M35.3757 32.4059L25.9648 22.995L14.9698 12H14.1106L13.9351 12.4458C13.472 13.6226 13.2742 14.8261 13.363 15.9262C13.4643 17.1803 13.9406 18.2659 14.7408 19.066L23.324 27.6493L24.4562 26.5172L32.3914 35.3903C33.1808 36.1797 34.5394 36.2265 35.3757 35.3903C36.1985 34.5675 36.1985 33.2287 35.3757 32.4059Z" fill="white"/>
<path d="M19.3465 25.6614L12.6241 32.3838C11.8014 33.2065 11.8014 34.5453 12.6241 35.3681C13.4057 36.1497 14.7578 36.2187 15.6084 35.3681L22.3309 28.6456L19.3465 25.6614Z" fill="white"/>
<path d="M34.9806 15.996L31.1673 19.8093L30.1725 18.8145L33.9858 15.0011L32.991 14.0064L29.1777 17.8196L28.1829 16.8249L31.9963 13.0116L31.0015 12.0168L26.0276 16.9908C25.4191 17.5992 25.0558 18.4072 25.0044 19.2658C24.9915 19.4834 24.9421 19.6974 24.8604 19.9009L28.0914 23.1319C28.2949 23.05 28.509 23.0008 28.7265 22.9878C29.5851 22.9366 30.3931 22.5731 31.0015 21.9647L35.9754 16.9908L34.9806 15.996Z" fill="white"/>
</g>
<defs>
<clipPath id="clip0_687_2821">
<rect width="24" height="24" fill="white" transform="translate(12 12)"/>
</clipPath>
</defs>
</svg>
