<svg width="33" height="19" viewBox="0 0 33 19" fill="none" xmlns="http://www.w3.org/2000/svg">
<path d="M16.6465 12.6441C15.7172 12.6441 14.7879 12.5088 13.893 12.2722L6.18323 10.0071V15.1797C6.18323 16.1263 6.80277 16.9377 7.73207 17.2081L11.1051 18.1886C14.8223 19.2704 18.7461 19.2704 22.4633 18.1886L25.8364 17.2081C26.7657 16.9377 27.3852 16.1263 27.3852 15.1797V9.93945L19.4001 12.2722C18.5052 12.5427 17.5759 12.6441 16.6465 12.6441Z" fill="black" fill-opacity="0.7"/>
<path d="M32.3072 4.25979L18.7117 0.30427C17.3694 -0.101423 15.9238 -0.101423 14.5471 0.30427L0.986044 4.25979C0.0567355 4.53025 0.0567355 5.84875 0.986044 6.11922L14.5815 10.0747C15.9238 10.4804 17.3694 10.4804 18.7462 10.0747L30.3797 6.69395V9.70285C30.1388 9.83808 29.9667 10.0747 29.9667 10.3452V11.1566C29.9667 11.4609 30.1388 11.7313 30.4141 11.8327L29.6913 13.4893C29.5881 13.726 29.7258 13.9626 30.0011 13.9964L30.7583 14.0641C30.896 14.0641 31.0681 14.0641 31.2058 14.0641L31.963 13.9964C32.2039 13.9626 32.3416 13.726 32.2727 13.4893L31.5499 11.8327C31.8253 11.6975 31.9974 11.4609 31.9974 11.1566V10.3452C31.9974 10.0747 31.8253 9.83808 31.5844 9.70285V6.35587L32.3416 6.11922C33.2365 5.81495 33.2365 4.53025 32.3072 4.25979Z" fill="black" fill-opacity="0.7"/>
</svg>
