<svg width="48" height="48" viewBox="0 0 48 48" fill="none" xmlns="http://www.w3.org/2000/svg">
<circle cx="24" cy="24" r="24" fill="#7D8F9B"/>
<g clip-path="url(#clip0_686_905)">
<path d="M24 17.1451C25.2194 17.1451 26.2079 16.1565 26.2079 14.9372C26.2079 13.7178 25.2194 12.7292 24 12.7292C22.7806 12.7292 21.7921 13.7178 21.7921 14.9372C21.7921 16.1565 22.7806 17.1451 24 17.1451Z" fill="white"/>
<path d="M16.104 33.0374C16.7307 31.9912 16.3907 30.6349 15.3445 30.0082C14.2983 29.3814 12.9421 29.7215 12.3153 30.7677C11.6885 31.814 12.0285 33.1702 13.0748 33.7969C14.121 34.4237 15.4772 34.0836 16.104 33.0374Z" fill="white"/>
<path d="M33.0272 26.2436C33.0272 22.1256 30.2555 18.6428 26.4797 17.5627C25.8319 18.1748 24.9594 18.5512 24 18.5512C23.0407 18.5512 22.1681 18.1747 21.5204 17.5627C17.7445 18.6428 14.9728 22.1256 14.9728 26.2436C14.9728 26.9992 15.0666 27.7332 15.2423 28.4351C16.1141 28.6969 16.8721 29.2825 17.3381 30.0899C17.8026 30.8943 17.9378 31.8264 17.7249 32.7265C19.3505 34.3005 21.5639 35.2709 24 35.2709C26.4362 35.2709 28.6495 34.3005 30.2752 32.7265C30.0622 31.8264 30.1974 30.8943 30.6619 30.0898C31.128 29.2825 31.8859 28.6969 32.7578 28.4351C32.9334 27.7332 33.0272 26.9992 33.0272 26.2436ZM31.6204 26.2901L29.2997 24.9502C28.9634 24.7561 28.5334 24.8713 28.3392 25.2076L25.2724 30.5194C25.0783 30.8557 25.1935 31.2857 25.5298 31.4798L27.8488 32.8188C26.7185 33.4829 25.403 33.8645 24 33.8645C22.5969 33.8645 21.2814 33.4829 20.1511 32.8188L22.4702 31.4798C22.8064 31.2857 22.9217 30.8557 22.7275 30.5194L19.6608 25.2076C19.4666 24.8714 19.0366 24.7561 18.7003 24.9503L16.3796 26.2902C16.3795 26.2747 16.379 26.2592 16.379 26.2437C16.379 23.4119 17.9316 20.9362 20.2301 19.6224V22.3007C20.2301 22.689 20.5449 23.0038 20.9332 23.0038H27.0668C27.4551 23.0038 27.7699 22.689 27.7699 22.3007V19.6224C30.0684 20.9362 31.621 23.4119 31.621 26.2437C31.621 26.2591 31.6205 26.2746 31.6204 26.2901Z" fill="white"/>
<path d="M35.8231 32.7523C36.2914 31.6268 35.7586 30.3349 34.6331 29.8666C33.5076 29.3984 32.2156 29.9312 31.7474 31.0566C31.2791 32.1821 31.8119 33.4741 32.9374 33.9423C34.0629 34.4106 35.3549 33.8778 35.8231 32.7523Z" fill="white"/>
</g>
<defs>
<clipPath id="clip0_686_905">
<rect width="24" height="24" fill="white" transform="translate(12 12)"/>
</clipPath>
</defs>
</svg>
