<svg width="20" height="30" viewBox="0 0 20 30" fill="none" xmlns="http://www.w3.org/2000/svg">
<path d="M4.79959 7.20001C6.56696 7.20001 7.9997 5.76728 7.9997 3.99991C7.9997 2.23254 6.56696 0.799805 4.79959 0.799805C3.03222 0.799805 1.59949 2.23254 1.59949 3.99991C1.59949 5.76728 3.03222 7.20001 4.79959 7.20001Z" fill="black" fill-opacity="0.7"/>
<path d="M4.79979 8.80005C3.52702 8.80106 2.30667 9.30711 1.40668 10.2071C0.506694 11.1071 0.000641381 12.3274 -0.000366211 13.6002C-0.000366211 13.7682 0.00763401 13.9362 0.0236345 14.0962L1.59969 26.4006C1.59969 26.8209 1.68246 27.237 1.84328 27.6253C2.0041 28.0135 2.23982 28.3663 2.53698 28.6634C2.83413 28.9606 3.18691 29.1963 3.57516 29.3571C3.96342 29.518 4.37955 29.6007 4.79979 29.6007C5.22003 29.6007 5.63616 29.518 6.02442 29.3571C6.41267 29.1963 6.76545 28.9606 7.06261 28.6634C7.35976 28.3663 7.59548 28.0135 7.7563 27.6253C7.91712 27.237 7.99989 26.8209 7.99989 26.4006L9.57595 14.0962C9.59195 13.9362 9.59995 13.7682 9.59995 13.6002C9.59894 12.3274 9.09289 11.1071 8.1929 10.2071C7.29292 9.30711 6.07256 8.80106 4.79979 8.80005Z" fill="black" fill-opacity="0.7"/>
<path d="M17.9516 25.1522L17.6 25.5037V4.89684L17.9516 5.24841C18.063 5.35984 18.1953 5.44822 18.3408 5.50852C18.4864 5.56883 18.6424 5.59986 18.8 5.59986C18.9576 5.59986 19.1136 5.56883 19.2592 5.50852C19.4048 5.44822 19.5371 5.35984 19.6485 5.24841C19.7599 5.13699 19.8483 5.00471 19.9086 4.85913C19.9689 4.71355 19.9999 4.55752 19.9999 4.39994C19.9999 4.24237 19.9689 4.08633 19.9086 3.94075C19.8483 3.79517 19.7599 3.66289 19.6485 3.55147L17.2484 1.15139C17.137 1.03993 17.0047 0.951509 16.8592 0.891182C16.7136 0.830855 16.5575 0.799805 16.3999 0.799805C16.2424 0.799805 16.0863 0.830855 15.9407 0.891182C15.7951 0.951509 15.6629 1.03993 15.5515 1.15139L13.1514 3.55147C12.9264 3.7765 12.7999 4.0817 12.7999 4.39994C12.7999 4.71818 12.9264 5.02339 13.1514 5.24841C13.3764 5.47344 13.6816 5.59986 13.9999 5.59986C14.3181 5.59986 14.6233 5.47344 14.8483 5.24841L15.1999 4.89684V25.5037L14.8483 25.1522C14.7369 25.0407 14.6046 24.9523 14.459 24.892C14.3135 24.8317 14.1574 24.8007 13.9998 24.8007C13.8423 24.8007 13.6862 24.8317 13.5407 24.892C13.3951 24.9523 13.2628 25.0407 13.1514 25.1522C13.04 25.2636 12.9516 25.3959 12.8913 25.5414C12.831 25.687 12.7999 25.8431 12.7999 26.0006C12.7999 26.1582 12.831 26.3142 12.8913 26.4598C12.9516 26.6054 13.04 26.7377 13.1514 26.8491L15.5515 29.2492C15.6629 29.3606 15.7951 29.4491 15.9407 29.5094C16.0863 29.5697 16.2423 29.6008 16.3999 29.6008C16.5575 29.6008 16.7136 29.5697 16.8591 29.5094C17.0047 29.4491 17.137 29.3606 17.2484 29.2492L19.6485 26.8491C19.8735 26.6241 19.9999 26.3189 19.9999 26.0006C19.9999 25.6824 19.8735 25.3772 19.6485 25.1522C19.4234 24.9271 19.1182 24.8007 18.8 24.8007C18.4818 24.8007 18.1766 24.9271 17.9516 25.1522Z" fill="black" fill-opacity="0.7"/>
</svg>
