<svg width="48" height="48" viewBox="0 0 48 48" fill="none" xmlns="http://www.w3.org/2000/svg">
<circle cx="24" cy="24" r="24" fill="#7BB972"/>
<path d="M19.3198 16.76C20.9104 16.76 22.1998 15.4706 22.1998 13.88C22.1998 12.2894 20.9104 11 19.3198 11C17.7292 11 16.4398 12.2894 16.4398 13.88C16.4398 15.4706 17.7292 16.76 19.3198 16.76Z" fill="white"/>
<path d="M19.32 18.2002C18.1745 18.2011 17.0763 18.6565 16.2663 19.4665C15.4563 20.2764 15.0009 21.3747 15 22.5202C15 22.6714 15.0072 22.8226 15.0216 22.9666L16.44 34.0401C16.44 34.4183 16.5145 34.7928 16.6592 35.1423C16.804 35.4917 17.0161 35.8092 17.2835 36.0766C17.551 36.344 17.8684 36.5562 18.2179 36.7009C18.5673 36.8456 18.9418 36.9201 19.32 36.9201C19.6982 36.9201 20.0727 36.8456 20.4221 36.7009C20.7715 36.5562 21.089 36.344 21.3564 36.0766C21.6239 35.8092 21.836 35.4917 21.9807 35.1423C22.1255 34.7928 22.2 34.4183 22.2 34.0401L23.6184 22.9666C23.6328 22.8226 23.64 22.6714 23.64 22.5202C23.6391 21.3747 23.1836 20.2764 22.3737 19.4665C21.5637 18.6565 20.4654 18.2011 19.32 18.2002Z" fill="white"/>
<path d="M31.1562 32.9163L30.8398 33.2327V14.6872L31.1562 15.0036C31.2565 15.1039 31.3755 15.1834 31.5065 15.2377C31.6375 15.292 31.778 15.3199 31.9198 15.3199C32.0616 15.3199 32.202 15.292 32.333 15.2377C32.4641 15.1834 32.5831 15.1039 32.6834 15.0036C32.7837 14.9033 32.8632 14.7843 32.9175 14.6533C32.9717 14.5222 32.9997 14.3818 32.9997 14.24C32.9997 14.0982 32.9717 13.9578 32.9175 13.8268C32.8632 13.6957 32.7837 13.5767 32.6834 13.4764L30.5234 11.3164C30.4231 11.2161 30.3041 11.1365 30.1731 11.0822C30.0421 11.0279 29.9016 11 29.7598 11C29.618 11 29.4775 11.0279 29.3465 11.0822C29.2155 11.1365 29.0965 11.2161 28.9962 11.3164L26.8362 13.4764C26.6337 13.6789 26.5199 13.9536 26.5199 14.24C26.5199 14.5264 26.6337 14.8011 26.8362 15.0036C27.0387 15.2061 27.3134 15.3199 27.5998 15.3199C27.8862 15.3199 28.1609 15.2061 28.3634 15.0036L28.6798 14.6872V33.2327L28.3634 32.9163C28.2631 32.816 28.1441 32.7365 28.013 32.6822C27.882 32.628 27.7416 32.6 27.5998 32.6C27.458 32.6 27.3175 32.628 27.1865 32.6822C27.0555 32.7365 26.9365 32.816 26.8362 32.9163C26.7359 33.0166 26.6564 33.1356 26.6021 33.2667C26.5478 33.3977 26.5199 33.5381 26.5199 33.6799C26.5199 33.8217 26.5478 33.9622 26.6021 34.0932C26.6564 34.2242 26.7359 34.3432 26.8362 34.4435L28.9962 36.6035C29.0964 36.7038 29.2155 36.7834 29.3465 36.8377C29.4775 36.892 29.618 36.9199 29.7598 36.9199C29.9016 36.9199 30.042 36.892 30.1731 36.8377C30.3041 36.7834 30.4231 36.7038 30.5234 36.6035L32.6834 34.4435C32.8859 34.241 32.9997 33.9663 32.9997 33.6799C32.9997 33.3935 32.8859 33.1188 32.6834 32.9163C32.4808 32.7138 32.2062 32.6 31.9198 32.6C31.6334 32.6 31.3587 32.7138 31.1562 32.9163Z" fill="white"/>
</svg>
