<svg width="44" height="36" viewBox="0 0 44 36" fill="none" xmlns="http://www.w3.org/2000/svg">
<path d="M4.96072 1.71075C8.29344 -0.480452 12.8554 -0.574102 16.2798 1.4731C17.8873 2.37879 19.0755 3.82145 20.3891 5.0827C19.1857 6.29338 17.9753 7.49476 16.7721 8.70544C15.5539 7.59385 14.5509 6.14371 12.9602 5.53191C10.9468 4.6879 8.48052 5.15004 6.90883 6.6639C5.28816 8.14783 4.6877 10.6121 5.42853 12.6779C5.7206 13.5425 6.2426 14.3171 6.89364 14.9496C7.80703 15.8591 8.71998 16.7684 9.62566 17.6854C8.89232 19.841 8.72202 22.1801 9.13745 24.4198C7.00226 22.2903 4.85414 20.1723 2.74707 18.0147C0.555875 15.6026 -0.409676 12.1615 0.161083 8.95783C0.649528 6.00902 2.44593 3.32008 4.96072 1.71075Z" fill="url(#paint0_linear_624_10594)"/>
<path d="M27.4923 1.61712C29.923 0.0975838 32.9711 -0.375895 35.7519 0.309153C38.5306 0.964041 41.0005 2.78652 42.462 5.236C44.2021 8.09524 44.4829 11.7742 43.2162 14.8709C42.6586 16.265 41.7958 17.5319 40.72 18.578C38.7664 20.5202 36.8333 22.4794 34.8723 24.4105C35.2784 22.1724 35.1119 19.8372 34.3763 17.6834C35.4281 16.602 36.5301 15.5709 37.5596 14.4668C39.3184 12.4459 39.3148 9.18053 37.5612 7.156C35.8621 5.0453 32.599 4.48746 30.2917 5.90767C29.1016 6.63399 28.2501 7.77165 27.234 8.70523C26.029 7.49841 24.8238 6.29136 23.6169 5.08997C24.8612 3.88314 25.9916 2.52099 27.4923 1.61712Z" fill="url(#paint1_linear_624_10594)"/>
<path d="M17.9995 17.9416C16.8748 19.055 16.2444 20.6437 16.3246 22.2267C16.3752 23.6673 17.019 25.0596 18.0408 26.0683C19.3637 27.3801 20.6848 28.6955 21.9964 30.0184C23.3139 28.7012 24.6423 27.3989 25.952 26.076C26.9589 25.056 27.6138 23.6768 27.6775 22.238C27.7636 20.6566 27.1348 19.0625 26.0121 17.949C24.6758 16.6112 23.3382 15.2787 22.0039 13.939C20.666 15.2714 19.3338 16.6073 17.9995 17.9416ZM14.2795 14.4256C16.8507 11.8471 19.4272 9.27224 22.0039 6.69917C24.5711 9.27224 27.1459 11.8394 29.7133 14.4125C31.6986 16.4109 32.8365 19.216 32.8007 22.0321C32.81 24.8426 31.6481 27.6213 29.661 29.6069C27.9133 31.3507 26.1656 33.0947 24.4196 34.8405C23.4391 35.8342 21.8374 36.1093 20.5742 35.5238C19.91 35.2353 19.4254 34.6834 18.9258 34.1836C17.3689 32.6233 15.8065 31.0663 14.2495 29.5075C12.3164 27.5372 11.1996 24.8013 11.2032 22.0432C11.1658 19.2289 12.2978 16.4259 14.2795 14.4256Z" fill="url(#paint2_linear_624_10594)"/>
<defs>
<linearGradient id="paint0_linear_624_10594" x1="10.1946" y1="24.4198" x2="10.1946" y2="9.53674e-05" gradientUnits="userSpaceOnUse">
<stop stop-color="#FC5E7F"/>
<stop offset="1" stop-color="#F41849"/>
</linearGradient>
<linearGradient id="paint1_linear_624_10594" x1="33.8085" y1="24.4105" x2="33.8085" y2="0.00237465" gradientUnits="userSpaceOnUse">
<stop stop-color="#FC5E7F"/>
<stop offset="1" stop-color="#F41849"/>
</linearGradient>
<linearGradient id="paint2_linear_624_10594" x1="22.0019" y1="35.8284" x2="22.0019" y2="6.69917" gradientUnits="userSpaceOnUse">
<stop stop-color="#FC5E7F"/>
<stop offset="1" stop-color="#F41849"/>
</linearGradient>
</defs>
</svg>
