<svg width="20" height="25" viewBox="0 0 20 25" fill="none" xmlns="http://www.w3.org/2000/svg">
<path d="M2.02566 15.5L9.11783 24.5753C9.22122 24.7072 9.35481 24.8143 9.50814 24.888C9.66147 24.9617 9.83036 25 10.0016 25C10.1728 25 10.3417 24.9617 10.495 24.888C10.6484 24.8143 10.782 24.7072 10.8853 24.5753L17.9775 15.5C19.0992 14.065 19.7848 12.3559 19.957 10.5648C20.1293 8.77375 19.7815 6.97172 18.9526 5.36132C18.1238 3.75092 16.8468 2.396 15.2653 1.44888C13.6837 0.501763 11.8603 0 10 0C8.13971 0 6.31629 0.501763 4.73474 1.44888C3.1532 2.396 1.87622 3.75092 1.04739 5.36132C0.218551 6.97172 -0.129291 8.77375 0.0429692 10.5648C0.215229 12.3559 0.90076 14.065 2.02249 15.5H2.02566ZM10.0016 4.55947C11.0196 4.55947 12.0148 4.85137 12.8613 5.39827C13.7077 5.94516 14.3675 6.72249 14.7571 7.63194C15.1466 8.5414 15.2486 9.54214 15.05 10.5076C14.8514 11.4731 14.3611 12.3599 13.6413 13.056C12.9214 13.7521 12.0042 14.2261 11.0058 14.4181C10.0073 14.6102 8.97235 14.5116 8.0318 14.1349C7.09126 13.7582 6.28736 13.1203 5.72177 12.3018C5.15618 11.4833 4.85429 10.521 4.85429 9.53662C4.85597 8.21709 5.39881 6.95208 6.36375 6.01903C7.32869 5.08599 8.63695 4.56109 10.0016 4.55947Z" fill="black" fill-opacity="0.7"/>
</svg>
