<svg width="48" height="48" viewBox="0 0 48 48" fill="none" xmlns="http://www.w3.org/2000/svg">
<circle cx="24" cy="24" r="24" fill="#77D67A"/>
<g clip-path="url(#clip0_687_2782)">
<path d="M18.0952 21.8752L17.6017 22.8741C17.4297 23.2223 17.0079 23.365 16.66 23.193C16.3118 23.0211 16.169 22.5994 16.341 22.2513L19.1198 16.6264C19.376 16.1079 20.1167 16.104 20.3777 16.6208L22.2358 20.2991C23.6892 19.2127 25.4625 18.5318 27.3867 18.4269C26.7572 14.782 23.5726 12.0005 19.75 12.0005C15.477 12.0005 12.0004 15.4771 12.0004 19.7501C12.0004 21.6687 12.7152 23.5141 13.986 24.9292L12.276 26.2388C11.7429 26.6475 12.0344 27.5002 12.7035 27.5002H18.4216C18.5124 25.3698 19.3085 23.4188 20.5818 21.8752H18.0952V21.8752Z" fill="white"/>
<path d="M18.79 20.4689H20.7463L19.7573 18.511L18.79 20.4689Z" fill="white"/>
<path d="M35.7241 34.7384L33.9024 33.3433C35.244 31.8623 35.9998 29.9243 35.9998 27.9094C35.9998 23.4484 32.3705 19.8191 27.9094 19.8191C23.4484 19.8191 19.8191 23.4484 19.8191 27.9094C19.8191 32.4337 23.5013 35.9998 27.8889 35.9998H35.2966C35.967 35.9998 36.2563 35.146 35.7241 34.7384ZM30.7125 30.0188C31.1008 30.0188 31.4156 30.3336 31.4156 30.7219C31.4156 31.1102 31.1008 31.425 30.7125 31.425C30.5113 31.3999 29.2725 31.5849 27.9048 30.7124C26.5497 31.5767 25.2836 31.4017 25.097 31.425C24.7087 31.425 24.3939 31.1102 24.3939 30.7219C24.3939 30.3336 24.7087 30.0188 25.097 30.0188C25.3102 30.0011 25.9766 30.1064 26.7974 29.7201C26.2317 29.0174 25.8698 28.1441 25.8024 27.1906H25.097C24.7087 27.1906 24.3939 26.8758 24.3939 26.4875C24.3939 26.0992 24.7087 25.7844 25.097 25.7844H27.2016V25.097C27.2016 24.7087 27.5164 24.3939 27.9047 24.3939C28.293 24.3939 28.6078 24.7087 28.6078 25.097V25.7844H30.7219C31.1102 25.7844 31.425 26.0992 31.425 26.4875C31.425 26.8758 31.1102 27.1906 30.7219 27.1906H30.0071C29.9397 28.1441 29.5778 29.0174 29.0121 29.7201C29.8317 30.1058 30.499 30.001 30.7125 30.0188Z" fill="white"/>
<path d="M27.9048 28.8539C28.2827 28.3901 28.5317 27.8174 28.596 27.1907H27.2136C27.278 27.8174 27.527 28.3901 27.9048 28.8539Z" fill="white"/>
</g>
<defs>
<clipPath id="clip0_687_2782">
<rect width="24" height="24" fill="white" transform="translate(12 12)"/>
</clipPath>
</defs>
</svg>
