<svg width="48" height="48" viewBox="0 0 48 48" fill="none" xmlns="http://www.w3.org/2000/svg">
<circle cx="24" cy="24" r="24" fill="#7BB972"/>
<g clip-path="url(#clip0_687_2741)">
<path d="M20.0194 32.543C16.7925 32.3604 14.2231 29.6775 14.2231 26.4054C14.2231 23.0155 16.9807 20.2576 20.3704 20.2576C21.8863 20.2576 23.342 20.8139 24.4693 21.8239C25.7712 22.9884 26.5181 24.6584 26.5181 26.4054C26.5181 27.8704 25.9926 29.2812 25.0549 30.3855C25.7199 30.8164 26.4834 31.0738 27.2791 31.1325C28.2367 29.7385 28.7412 28.1119 28.7412 26.4054C28.7412 24.5771 28.1624 22.8405 27.0674 21.3834C26.1974 20.2252 25.0394 19.3083 23.7186 18.7316C22.9866 18.4115 22.2212 18.2008 21.4328 18.1015C23.0263 16.9284 23.6357 15.9452 23.6357 15.0876C23.6357 14.0586 22.8015 13.2244 21.7724 13.2244C21.2133 13.2244 20.7121 13.471 20.3705 13.861C20.029 13.471 19.5278 13.2244 18.9686 13.2244C17.9396 13.2244 17.1054 14.0586 17.1054 15.0876C17.1054 15.9453 17.7149 16.9287 19.3091 18.102C15.1929 18.6252 12 22.1494 12 26.4054C12 31.0208 15.7549 34.7758 20.3704 34.7758C21.0085 34.7758 21.6349 34.705 22.2448 34.5654C21.4069 34.0113 20.6543 33.3293 20.0194 32.543Z" fill="white"/>
<path d="M27.6296 18.0352C26.9914 18.0352 26.365 18.106 25.7551 18.2455C26.593 18.7996 27.3456 19.4816 27.9806 20.2679C31.2075 20.4505 33.7769 23.1334 33.7769 26.4055C33.7769 29.7954 31.0193 32.5533 27.6297 32.5533C26.1137 32.5533 24.658 31.997 23.5307 30.987C22.2288 29.8225 21.4819 28.1524 21.4819 26.4055C21.4819 24.9404 22.0074 23.5296 22.9451 22.4253C22.2801 21.9944 21.5166 21.737 20.7208 21.6783C19.7632 23.0724 19.2588 24.6989 19.2588 26.4054C19.2588 28.2338 19.8376 29.9703 20.9326 31.4274C21.8026 32.5857 22.9606 33.5026 24.2814 34.0792C25.3384 34.5415 26.4647 34.7758 27.6297 34.7758C32.2451 34.7758 36 31.0209 36 26.4054C35.9999 21.7901 32.245 18.0352 27.6296 18.0352Z" fill="white"/>
</g>
<defs>
<clipPath id="clip0_687_2741">
<rect width="24" height="24" fill="white" transform="translate(12 12)"/>
</clipPath>
</defs>
</svg>
