<svg width="48" height="48" viewBox="0 0 48 48" fill="none" xmlns="http://www.w3.org/2000/svg">
<circle cx="24" cy="24" r="24" fill="#DA4F7A"/>
<g clip-path="url(#clip0_686_877)">
<path d="M30.516 17.7191L32.0222 16.2127C32.2967 15.9382 32.2967 15.4929 32.0222 15.2184C31.7476 14.9438 31.3024 14.9438 31.0278 15.2184L29.5215 16.7247C29.2469 16.9993 29.2469 17.4445 29.5215 17.7191C29.796 17.9936 30.2413 17.9938 30.516 17.7191Z" fill="white"/>
<path d="M33.7844 21.7905H32.2782C31.8898 21.7905 31.5751 22.1053 31.5751 22.4937C31.5751 22.8818 31.8898 23.1968 32.2782 23.1968H33.7844C34.1728 23.1968 34.4875 22.8818 34.4875 22.4937C34.4875 22.1053 34.1728 21.7905 33.7844 21.7905Z" fill="white"/>
<path d="M24.6969 12.7031C24.6969 12.3148 24.3821 12 23.9938 12C23.6054 12 23.2906 12.3148 23.2906 12.7031V14.2093C23.2906 14.5977 23.6054 14.9125 23.9938 14.9125C24.3821 14.9125 24.6969 14.5977 24.6969 14.2093V12.7031Z" fill="white"/>
<path d="M17.4716 17.7191C17.7461 17.9936 18.1914 17.9938 18.466 17.7191C18.7405 17.4445 18.7405 16.9993 18.466 16.7247L16.9598 15.2184C16.6852 14.9438 16.24 14.9438 15.9654 15.2184C15.6909 15.4931 15.6909 15.9382 15.9654 16.2127L17.4716 17.7191Z" fill="white"/>
<path d="M16.4125 22.4937C16.4125 22.1053 16.0977 21.7905 15.7093 21.7905H14.2031C13.8148 21.7905 13.5 22.1053 13.5 22.4937C13.5 22.8818 13.8148 23.1968 14.2031 23.1968H15.7093C16.0977 23.1968 16.4125 22.882 16.4125 22.4937Z" fill="white"/>
<path d="M20.2782 26.2214C20.2785 25.6267 20.4195 25.0268 20.6878 24.4824C20.6878 24.4824 22.5393 20.7837 22.8935 20.0769C23.1533 19.5544 23.2906 18.9712 23.2906 18.39C23.2906 17.8169 23.074 17.278 22.68 16.8678L22.0916 16.2795C21.8655 16.0532 21.4841 16.1151 21.3409 16.4013L17.3399 24.4033C17.291 24.5009 17.2657 24.6086 17.2657 24.7177V30.075L15.5535 31.787C15.279 32.0617 15.279 32.5068 15.5535 32.7815L18.566 35.7939C18.8406 36.0686 19.2859 36.0686 19.5604 35.7939L22.3939 32.9602C22.9722 32.3834 23.2906 31.6146 23.2906 30.7954V24.8679C23.2906 24.7573 23.2011 24.6677 23.0907 24.6677C22.3139 24.6677 21.6844 25.2974 21.6844 26.074V28.5195C21.6844 28.9191 21.351 29.2408 20.9472 29.2217C20.5691 29.204 20.2782 28.8782 20.2782 28.4996V26.224C20.2782 26.2232 20.2782 26.2223 20.2782 26.2214Z" fill="white"/>
<path d="M30.722 30.075V24.7177C30.722 24.6086 30.6965 24.5009 30.6476 24.4033L26.6466 16.4013C26.5034 16.1151 26.1222 16.0532 25.8959 16.2795L25.3076 16.8678C24.9137 17.278 24.6969 17.8169 24.6969 18.39C24.6969 18.9712 24.8342 19.5544 25.0941 20.0769C25.4482 20.7837 27.2999 24.4824 27.2999 24.4824C27.5682 25.0268 27.709 25.6267 27.7095 26.2214V26.224V28.4996C27.7095 28.8782 27.4186 29.204 27.0403 29.2219C26.6365 29.241 26.3033 28.9191 26.3033 28.5195V26.074C26.3033 25.2974 25.6736 24.6677 24.897 24.6677C24.7866 24.6677 24.6969 24.7573 24.6969 24.8679V30.7954C24.6969 31.6146 25.0155 32.3834 25.5937 32.9602L28.4273 35.7939C28.7018 36.0686 29.1471 36.0686 29.4216 35.7941L32.434 32.7815C32.7087 32.5068 32.7087 32.0617 32.434 31.7872L30.722 30.075Z" fill="white"/>
</g>
<defs>
<clipPath id="clip0_686_877">
<rect width="24" height="24" fill="white" transform="translate(12 12)"/>
</clipPath>
</defs>
</svg>
