<svg width="21" height="21" viewBox="0 0 21 21" fill="none" xmlns="http://www.w3.org/2000/svg">
<path d="M20.4462 8.46269L18.4437 7.62687C18.3383 7.41791 18.2329 7.20895 18.1275 7L18.9707 4.91045C19.1815 4.49254 19.0761 4.07463 18.7599 3.76119L17.2844 2.29851C16.9682 1.98507 16.5466 1.8806 16.1251 2.08955L14.1226 2.8209C13.9118 2.71642 13.701 2.61194 13.4903 2.50746L12.6471 0.522388C12.4363 0.208955 12.0148 0 11.5932 0H9.48534C9.06377 0 8.6422 0.208955 8.53681 0.626866L7.69367 2.61194C7.37749 2.71642 7.1667 2.71642 6.95592 2.8209L4.95346 2.08955C4.53188 1.8806 4.11031 1.98507 3.79414 2.29851L2.31864 3.76119C2.00246 4.07463 1.89707 4.49254 2.10785 4.91045L2.8456 6.89552C2.8456 7.10448 2.74021 7.31343 2.63482 7.62687L0.632356 8.46269C0.210785 8.67164 0 8.98507 0 9.40298V11.4925C0 11.9104 0.210785 12.3284 0.632356 12.4328L2.63482 13.2687C2.74021 13.4776 2.8456 13.6866 2.95099 13.8955L2.10785 15.9851C1.89707 16.403 2.00246 16.8209 2.31864 17.1343L3.79414 18.597C4.11031 18.9104 4.53188 19.0149 4.95346 18.806L6.95592 18.0746C7.1667 18.1791 7.37749 18.2836 7.58827 18.3881L8.43141 20.3731C8.6422 20.791 8.95838 21 9.37995 21H11.4878C11.9094 21 12.3309 20.791 12.4363 20.3731L13.2795 18.3881C13.4903 18.2836 13.701 18.1791 13.9118 18.0746L15.9143 18.806C16.3359 18.9104 16.7574 18.9104 17.0736 18.597L18.5491 17.1343C18.8653 16.8209 18.9707 16.403 18.7599 15.9851L18.0221 14C18.1275 13.791 18.2329 13.5821 18.3383 13.3731L20.3408 12.5373C20.7624 12.3284 20.9731 12.0149 20.9731 11.597V9.50746C21.0785 8.98507 20.8677 8.67164 20.4462 8.46269ZM14.755 10.4478C14.755 12.7463 12.8579 14.6269 10.5393 14.6269C8.22063 14.6269 6.32356 12.7463 6.32356 10.4478C6.32356 8.14925 8.22063 6.26866 10.5393 6.26866C12.8579 6.26866 14.755 8.14925 14.755 10.4478Z" fill="#4B164C"/>
</svg>
