<svg width="258" height="174" viewBox="0 0 258 174" fill="none" xmlns="http://www.w3.org/2000/svg">
<path d="M27.5482 136.275C29.7019 136.275 31.5782 136.909 33.1745 138.176C34.7708 139.444 35.5683 141.052 35.5683 143.003C35.5683 145.107 34.7575 146.728 33.1358 147.867C31.513 149.007 29.1566 149.578 26.0653 149.578H16.829C16.677 149.578 16.5829 149.508 16.5443 149.369C16.5069 149.23 16.5503 149.108 16.677 149.007C17.0064 148.78 17.1717 148.336 17.1717 147.676V127.535C17.1717 126.851 17.0064 126.381 16.677 126.128C16.5503 126.028 16.5008 125.913 16.525 125.787C16.5503 125.661 16.6516 125.597 16.829 125.597H24.7357C27.8269 125.597 30.1399 126.059 31.6735 126.983C33.2058 127.909 33.972 129.156 33.972 130.728C33.972 131.512 33.7633 132.235 33.3446 132.894C32.9259 133.554 32.3685 134.098 31.6723 134.527C30.9749 134.958 30.2968 135.313 29.638 135.593C28.978 135.871 28.283 136.099 27.5482 136.275ZM23.102 126.243C22.4939 126.243 22.1898 126.648 22.1898 127.459V137.797C23.0006 137.366 24.1155 136.846 25.5344 136.238C26.548 135.833 27.4348 135.123 28.1949 134.11C28.9551 133.096 29.3351 132.019 29.3351 130.879C29.3351 127.788 27.6496 126.241 24.2796 126.241H23.1008L23.102 126.243ZM24.3182 148.932C28.9804 148.932 31.3127 146.904 31.3127 142.851C31.3127 140.95 30.8494 139.512 29.9264 138.538C28.9997 137.562 27.8921 137.074 26.5998 137.074C25.6117 137.074 24.1421 137.605 22.191 138.67V147.64C22.191 148.502 22.3937 148.932 22.7991 148.932H24.3182Z" fill="#F41849"/>
<path d="M53.5489 147.525C53.7757 147.475 53.9156 147.57 53.9663 147.81C54.017 148.051 53.9289 148.223 53.7009 148.323C53.4728 148.425 52.8141 148.597 51.7233 148.837C50.6338 149.078 49.7349 149.249 49.0254 149.35C48.544 149.452 48.3027 149.261 48.3027 148.78V147.259C48.2773 147.335 48.2315 147.424 48.17 147.525C48.106 147.627 47.9359 147.817 47.656 148.096C47.3784 148.375 47.0732 148.622 46.7438 148.837C46.4144 149.053 45.9462 149.249 45.3381 149.426C44.7288 149.602 44.07 149.692 43.3606 149.692C41.7884 149.692 40.5408 149.287 39.6166 148.475C38.6899 147.664 38.229 146.728 38.229 145.663V133.919C38.229 133.236 38.0637 132.767 37.7355 132.513C37.6088 132.412 37.5581 132.298 37.5835 132.171C37.6088 132.045 37.709 131.981 37.8875 131.981H43.55C43.7274 131.981 43.8347 132.045 43.8746 132.171C43.912 132.298 43.8673 132.412 43.7418 132.513C43.4124 132.74 43.2471 133.21 43.2471 133.919V144.828C43.2471 145.612 43.4691 146.278 43.9132 146.822C44.356 147.367 44.9834 147.64 45.7954 147.64C46.529 147.64 47.1311 147.4 47.6005 146.917C48.0698 146.437 48.3039 145.84 48.3039 145.132V133.882C48.3039 133.198 48.1386 132.742 47.8092 132.513C47.6837 132.412 47.6379 132.298 47.6777 132.171C47.7151 132.045 47.8225 131.981 48.001 131.981H53.6261C53.8022 131.981 53.9108 132.045 53.9494 132.171C53.988 132.298 53.9434 132.412 53.8167 132.513C53.4885 132.767 53.3232 133.223 53.3232 133.882V147.297C53.3232 147.449 53.3992 147.525 53.5513 147.525H53.5489Z" fill="#F41849"/>
<path d="M69.0179 132.78C69.3968 133.338 69.4933 133.889 69.3027 134.433C69.1121 134.978 68.8961 135.396 68.656 135.687C68.4159 135.979 68.1685 136.201 67.9151 136.353C67.7124 136.454 67.4965 136.505 67.2696 136.505C67.0162 136.505 66.8389 136.429 66.7375 136.277C65.9026 134.783 64.9252 134.035 63.8104 134.035C63.2276 134.035 62.6714 134.302 62.1381 134.834V147.451C62.1381 148.135 62.3022 148.591 62.6316 148.82C62.7582 148.921 62.8029 149.036 62.7643 149.161C62.7269 149.288 62.6183 149.351 62.4409 149.351H56.7773C56.6252 149.351 56.5311 149.288 56.4925 149.161C56.4551 149.036 56.4985 148.921 56.6252 148.82C56.9546 148.567 57.1199 148.111 57.1199 147.451V133.92C57.1199 133.262 56.9546 132.806 56.6252 132.552C56.4985 132.451 56.4491 132.33 56.4732 132.192C56.4973 132.053 56.5999 131.982 56.7773 131.982H60.882C61.2368 131.982 61.5348 132.102 61.7749 132.344C62.0162 132.584 62.1369 132.882 62.1369 133.236V133.844C63.0732 132.323 64.4173 131.563 66.1656 131.563C67.6099 131.563 68.5619 131.97 69.0179 132.78Z" fill="#F41849"/>
<path d="M85.7809 145.967C85.9076 145.815 86.0476 145.828 86.1996 146.006C86.301 146.107 86.3142 146.222 86.2382 146.347C85.7568 147.259 84.8446 148.044 83.5005 148.703C82.1576 149.363 80.5987 149.691 78.825 149.691C76.3166 149.691 74.2883 148.893 72.7439 147.296C71.1983 145.702 70.373 143.572 70.2728 140.912C70.1968 138.302 70.9437 136.111 72.5147 134.337C74.1616 132.538 76.29 131.639 78.901 131.639C81.0801 131.639 82.8284 132.183 84.146 133.273C85.4636 134.362 86.1236 135.655 86.1236 137.149C86.1236 138.34 85.787 139.335 85.1161 140.134C84.444 140.931 83.6586 141.502 82.7597 141.843C81.8596 142.186 80.9788 142.49 80.1185 142.757C79.2558 143.022 78.6103 143.333 78.1807 143.687C77.75 144.041 77.6993 144.511 78.0287 145.092C78.1807 145.27 78.3895 145.492 78.6561 145.758C78.9228 146.025 79.473 146.386 80.3091 146.84C81.1453 147.295 81.9935 147.525 82.855 147.525C84.0724 147.525 85.0461 147.005 85.7821 145.966L85.7809 145.967ZM78.2929 132.514C76.8499 132.514 75.8798 133.305 75.3863 134.889C74.8916 136.472 74.8277 138.171 75.1957 139.983C75.5637 141.794 76.1657 143.08 77.0019 143.84C77.1539 143.257 77.4773 142.688 77.9708 142.129C78.4655 141.572 78.959 141.103 79.4537 140.724C79.9484 140.344 80.4105 139.786 80.8412 139.05C81.2708 138.317 81.5121 137.48 81.564 136.542C81.6388 135.353 81.3866 134.383 80.8026 133.635C80.221 132.888 79.3825 132.514 78.2929 132.514Z" fill="#F41849"/>
<path d="M104.71 148.475C104.862 148.475 104.95 148.546 104.975 148.685C105.001 148.824 104.938 148.932 104.786 149.008C104.482 149.236 103.595 149.35 102.125 149.35C101.365 149.35 100.713 149.211 100.168 148.932C99.623 148.654 99.261 148.387 99.0849 148.134L98.858 147.715L98.5914 147.943C97.5272 149.108 96.0564 149.691 94.1826 149.691C92.5597 149.691 91.1661 149.278 90.0006 148.456C88.835 147.633 88.239 146.423 88.2148 144.827C88.2148 144.371 88.3355 143.857 88.5768 143.287C88.8169 142.717 89.2597 142.058 89.9077 141.311C90.5532 140.564 91.6114 139.892 93.081 139.296C94.5506 138.702 96.3242 138.289 98.4031 138.062V135.135C98.4031 134.222 98.1691 133.514 97.6997 133.006C97.2304 132.499 96.6283 132.246 95.8947 132.246C94.6266 132.246 93.6456 132.968 92.9482 134.413C92.252 135.857 92.1314 136.897 92.5875 137.529C92.6635 137.656 92.6574 137.789 92.5682 137.928C92.4789 138.067 92.3848 138.15 92.2834 138.174C91.6234 138.276 90.9526 138.137 90.2684 137.756C89.5855 137.377 89.2416 136.793 89.2416 136.009C89.2416 134.717 89.9958 133.659 91.504 132.835C93.011 132.011 94.7412 131.599 96.6922 131.599C98.6179 131.599 100.246 132.043 101.576 132.931C102.907 133.819 103.572 135.149 103.572 136.922V146.119C103.572 146.475 103.578 146.722 103.591 146.86C103.605 146.999 103.635 147.235 103.687 147.563C103.736 147.892 103.851 148.128 104.028 148.266C104.204 148.406 104.434 148.475 104.712 148.475H104.71ZM96.3097 148.323C96.7658 148.323 97.1845 148.229 97.5646 148.039C97.9446 147.849 98.2101 147.664 98.3621 147.488L98.5902 147.221C98.4635 146.867 98.4007 146.437 98.4007 145.929V138.67C97.818 138.771 97.3353 138.867 96.9565 138.955C96.5764 139.043 96.0564 139.228 95.3976 139.505C94.7388 139.784 94.2248 140.12 93.8592 140.512C93.4912 140.906 93.1811 141.457 92.9277 142.165C92.6743 142.876 92.5995 143.699 92.7009 144.636C92.8264 145.675 93.2197 146.549 93.8797 147.259C94.5385 147.969 95.3493 148.323 96.3122 148.323H96.3097Z" fill="#F41849"/>
<path d="M122.46 147.525C122.687 147.475 122.827 147.57 122.878 147.81C122.929 148.051 122.841 148.223 122.613 148.323C122.384 148.425 121.726 148.597 120.635 148.837C119.545 149.078 118.647 149.249 117.937 149.35C117.456 149.452 117.214 149.261 117.214 148.78V147.259C117.189 147.335 117.143 147.424 117.082 147.525C117.018 147.627 116.847 147.817 116.568 148.096C116.29 148.375 115.985 148.622 115.655 148.837C115.326 149.053 114.858 149.249 114.25 149.426C113.64 149.602 112.982 149.692 112.272 149.692C110.7 149.692 109.452 149.287 108.528 148.475C107.602 147.664 107.141 146.728 107.141 145.663V133.919C107.141 133.236 106.975 132.767 106.647 132.513C106.52 132.412 106.47 132.298 106.495 132.171C106.52 132.045 106.621 131.981 106.799 131.981H112.462C112.639 131.981 112.746 132.045 112.786 132.171C112.824 132.298 112.779 132.412 112.653 132.513C112.324 132.74 112.159 133.21 112.159 133.919V144.828C112.159 145.612 112.381 146.278 112.825 146.822C113.268 147.367 113.895 147.64 114.707 147.64C115.441 147.64 116.043 147.4 116.512 146.917C116.981 146.437 117.216 145.84 117.216 145.132V133.882C117.216 133.198 117.05 132.742 116.721 132.513C116.595 132.412 116.549 132.298 116.589 132.171C116.627 132.045 116.734 131.981 116.913 131.981H122.538C122.714 131.981 122.822 132.045 122.861 132.171C122.9 132.298 122.855 132.412 122.728 132.513C122.4 132.767 122.235 133.223 122.235 133.882V147.297C122.235 147.449 122.311 147.525 122.463 147.525H122.46Z" fill="#F41849"/>
<path d="M156.746 141.901L157.468 142.28C157.392 142.508 157.265 142.8 157.088 143.155C156.911 143.511 156.5 144.137 155.854 145.037C155.207 145.937 154.491 146.722 153.706 147.393C152.921 148.065 151.863 148.661 150.532 149.178C149.201 149.698 147.789 149.907 146.294 149.807C144.266 149.68 142.505 149.154 141.011 148.229C139.515 147.304 138.394 146.177 137.647 144.846C136.899 143.515 136.361 142.25 136.031 141.046C135.702 139.843 135.537 138.708 135.537 137.645C135.537 134.021 136.544 131.032 138.559 128.675C140.574 126.317 143.354 125.139 146.903 125.139C151.259 125.139 154.377 127.053 156.252 130.879L151.805 132.21C151.425 130.31 150.709 128.769 149.657 127.591C148.606 126.413 147.383 125.824 145.989 125.824C145.61 125.824 145.254 125.861 144.925 125.939C143.861 126.165 142.937 126.858 142.15 128.01C141.364 129.163 140.801 130.532 140.459 132.114C140.117 133.697 140.023 135.383 140.175 137.168C140.327 138.955 140.706 140.603 141.315 142.11C141.923 143.618 142.879 144.865 144.184 145.855C145.49 146.842 147.028 147.337 148.803 147.337C149.841 147.337 150.83 147.154 151.767 146.786C152.704 146.418 153.464 145.968 154.048 145.437C154.631 144.905 155.137 144.366 155.569 143.822C155.999 143.278 156.303 142.814 156.482 142.434L156.748 141.904L156.746 141.901Z" fill="#F41849"/>
<path d="M175.257 137.189C176.296 139.52 176.43 141.843 175.656 144.162C174.883 146.481 173.419 148.122 171.266 149.084C170.227 149.565 169.125 149.807 167.96 149.807C166.235 149.807 164.62 149.306 163.113 148.305C161.604 147.305 160.472 145.943 159.71 144.219C158.671 141.915 158.537 139.602 159.312 137.283C160.084 134.964 161.548 133.311 163.703 132.323C164.74 131.843 165.831 131.601 166.971 131.601C168.668 131.601 170.277 132.109 171.799 133.122C173.319 134.135 174.473 135.491 175.257 137.189ZM167.998 147.165C169.238 148.445 170.253 148.906 171.04 148.551C171.824 148.197 172.142 147.132 171.989 145.359C171.837 143.585 171.28 141.611 170.317 139.43C169.329 137.252 168.213 135.523 166.973 134.242C165.731 132.963 164.717 132.501 163.931 132.855C163.144 133.21 162.822 134.281 162.962 136.067C163.101 137.852 163.664 139.824 164.652 141.976C165.64 144.156 166.755 145.885 167.997 147.165H167.998Z" fill="#F41849"/>
<path d="M194.187 147.525C194.413 147.475 194.553 147.57 194.604 147.81C194.655 148.051 194.567 148.223 194.339 148.323C194.111 148.425 193.452 148.597 192.361 148.837C191.271 149.078 190.373 149.249 189.663 149.35C189.182 149.452 188.94 149.261 188.94 148.78V147.259C188.915 147.335 188.869 147.424 188.808 147.525C188.744 147.627 188.574 147.817 188.294 148.096C188.016 148.375 187.711 148.622 187.381 148.837C187.052 149.053 186.584 149.249 185.976 149.426C185.367 149.602 184.708 149.692 183.998 149.692C182.426 149.692 181.178 149.287 180.254 148.475C179.328 147.664 178.867 146.728 178.867 145.663V133.919C178.867 133.236 178.701 132.767 178.373 132.513C178.247 132.412 178.196 132.298 178.221 132.171C178.247 132.045 178.347 131.981 178.525 131.981H184.188C184.365 131.981 184.472 132.045 184.512 132.171C184.55 132.298 184.505 132.412 184.38 132.513C184.05 132.74 183.885 133.21 183.885 133.919V144.828C183.885 145.612 184.107 146.278 184.551 146.822C184.994 147.367 185.621 147.64 186.433 147.64C187.167 147.64 187.769 147.4 188.238 146.917C188.708 146.437 188.942 145.84 188.942 145.132V133.882C188.942 133.198 188.776 132.742 188.447 132.513C188.321 132.412 188.276 132.298 188.315 132.171C188.353 132.045 188.46 131.981 188.639 131.981H194.264C194.44 131.981 194.549 132.045 194.587 132.171C194.626 132.298 194.581 132.412 194.454 132.513C194.126 132.767 193.961 133.223 193.961 133.882V147.297C193.961 147.449 194.037 147.525 194.189 147.525H194.187Z" fill="#F41849"/>
<path d="M202.739 132.437V133.767C204.131 132.375 205.729 131.678 207.528 131.678C209.479 131.678 211.159 132.482 212.565 134.091C213.971 135.7 214.674 137.898 214.674 140.685C214.674 143.575 213.856 145.786 212.223 147.318C210.589 148.85 208.693 149.616 206.541 149.616C205.045 149.616 203.778 149.25 202.74 148.515V154.102C202.74 154.785 202.904 155.254 203.234 155.508C203.359 155.609 203.41 155.724 203.386 155.85C203.36 155.976 203.259 156.04 203.082 156.04H197.418C197.242 156.04 197.133 155.976 197.095 155.85C197.057 155.724 197.101 155.609 197.227 155.508C197.556 155.281 197.721 154.836 197.721 154.177V135.289C197.721 135.035 197.646 134.921 197.494 134.946C197.266 134.971 197.126 134.865 197.075 134.623C197.025 134.383 197.113 134.211 197.342 134.11C199.572 133.071 201.117 132.386 201.979 132.058C202.486 131.88 202.739 132.007 202.739 132.437ZM205.36 148.667C206.78 148.667 207.849 147.95 208.572 146.52C209.294 145.089 209.655 143.232 209.655 140.952C209.655 138.292 209.312 136.296 208.628 134.965C207.944 133.635 207.056 132.971 205.968 132.971C204.75 132.971 203.674 133.566 202.737 134.757V147.603C203.497 148.312 204.37 148.667 205.359 148.667H205.36Z" fill="#F41849"/>
<path d="M223.073 148.819C223.199 148.92 223.249 149.035 223.225 149.16C223.2 149.287 223.098 149.35 222.921 149.35H217.257C217.081 149.35 216.973 149.287 216.934 149.16C216.897 149.035 216.94 148.92 217.067 148.819C217.395 148.591 217.56 148.147 217.56 147.488V128.713C217.56 128.435 217.485 128.308 217.333 128.333C217.105 128.359 216.965 128.253 216.915 128.01C216.864 127.77 216.952 127.599 217.181 127.497C219.056 126.636 220.602 125.964 221.818 125.483C222.072 125.381 222.261 125.368 222.389 125.445C222.516 125.52 222.58 125.648 222.58 125.824V147.45C222.58 148.11 222.744 148.566 223.073 148.819Z" fill="#F41849"/>
<path d="M240.975 145.967C241.102 145.815 241.242 145.828 241.394 146.006C241.495 146.107 241.509 146.222 241.433 146.347C240.951 147.259 240.039 148.044 238.695 148.703C237.352 149.363 235.793 149.691 234.019 149.691C231.511 149.691 229.483 148.893 227.938 147.296C226.393 145.702 225.567 143.572 225.467 140.912C225.391 138.302 226.138 136.111 227.709 134.337C229.356 132.538 231.484 131.639 234.095 131.639C236.274 131.639 238.023 132.183 239.34 133.273C240.658 134.362 241.318 135.655 241.318 137.149C241.318 138.34 240.981 139.335 240.31 140.134C239.638 140.931 238.853 141.502 237.954 141.843C237.054 142.186 236.173 142.49 235.313 142.757C234.45 143.022 233.805 143.333 233.375 143.687C232.944 144.041 232.894 144.511 233.223 145.092C233.375 145.27 233.584 145.492 233.85 145.758C234.117 146.025 234.667 146.386 235.503 146.84C236.34 147.295 237.188 147.525 238.049 147.525C239.267 147.525 240.24 147.005 240.976 145.966L240.975 145.967ZM233.487 132.514C232.044 132.514 231.074 133.305 230.581 134.889C230.086 136.472 230.022 138.171 230.39 139.983C230.758 141.794 231.36 143.08 232.196 143.84C232.348 143.257 232.672 142.688 233.165 142.129C233.66 141.572 234.153 141.103 234.648 140.724C235.143 140.344 235.605 139.786 236.036 139.05C236.465 138.317 236.706 137.48 236.758 136.542C236.833 135.353 236.581 134.383 235.997 133.635C235.415 132.888 234.578 132.514 233.488 132.514H233.487Z" fill="#F41849"/>
<path d="M139.636 85.0164L141.193 85.7932C141.024 86.2547 140.743 86.8401 140.356 87.5531C139.966 88.2698 139.065 89.5269 137.654 91.3318C136.239 93.1405 134.674 94.7128 132.967 96.0524C131.256 97.3958 128.955 98.5816 126.065 99.606C123.18 100.634 120.117 101.028 116.886 100.799C112.499 100.507 108.697 99.4146 105.477 97.5196C102.254 95.6246 99.8482 93.3281 98.2532 90.6301C96.6545 87.9283 95.5137 85.3617 94.8194 82.9263C94.1289 80.4947 93.7911 78.1982 93.8061 76.0518C93.8662 68.7345 96.0954 62.7118 100.494 57.9875C104.892 53.2594 110.927 50.9291 118.605 50.9892C128.036 51.0642 134.75 54.9855 138.746 62.7456L129.102 65.3536C128.31 61.5073 126.786 58.3853 124.527 55.9874C122.271 53.5896 119.637 52.3776 116.62 52.3551C115.801 52.3476 115.028 52.4189 114.315 52.569C112.011 53.008 109.996 54.3889 108.277 56.7042C106.558 59.0194 105.316 61.7737 104.55 64.9633C103.785 68.1566 103.552 71.5564 103.852 75.1662C104.153 78.7798 104.948 82.112 106.243 85.1665C107.534 88.2248 109.579 90.7577 112.39 92.7803C115.201 94.7953 118.522 95.8235 122.361 95.8535C124.609 95.8723 126.752 95.5158 128.786 94.7916C130.82 94.0636 132.472 93.1705 133.74 92.1086C135.012 91.0429 136.119 89.9622 137.058 88.8702C137.996 87.7782 138.664 86.8476 139.054 86.0821L139.639 85.0127L139.636 85.0164Z" fill="#F41849"/>
<path d="M163.177 75.9053C162.502 73.8827 161.578 72.0178 160.407 70.3142C159.237 68.6068 157.826 67.0983 156.193 65.7924C154.557 64.4828 152.778 63.4322 150.853 62.6366C153.048 60.8129 154.789 58.5277 156.08 55.7884C157.368 53.0529 158.013 50.0734 158.013 46.8613C158.013 43.9644 157.484 41.2476 156.426 38.7072C155.367 36.1668 153.915 33.9454 152.069 32.0391C150.222 30.1329 148.068 28.6281 145.603 27.5174C143.141 26.4104 140.502 25.8513 137.695 25.8513H113.737C112.716 26.8232 111.699 27.7951 110.679 28.767V48.9702L116.856 48.9627V35.0786C116.856 34.2868 117.164 33.6001 117.779 33.0223C118.395 32.4481 119.089 32.1592 119.858 32.1592H137.695C139.654 32.1592 141.508 32.5457 143.238 33.3187C144.972 34.0917 146.481 35.1424 147.772 36.4745C149.059 37.8029 150.08 39.3602 150.827 41.1463C151.577 42.9325 151.956 44.8387 151.956 46.8651C151.956 48.8501 151.577 50.7113 150.827 52.4562C150.08 54.2011 149.055 55.7321 147.772 57.038C145.794 59.1731 142.18 62.4603 136.787 64.4491C134.258 65.3834 131.939 65.8112 130.04 65.9951C131.304 68.5468 132.734 69.4811 133.792 69.8639C137.977 71.3836 142.154 66.3478 148.004 68.1978C148.672 68.4079 149.389 68.7306 149.389 68.7306C151.1 69.5036 152.594 70.5543 153.859 71.8864C155.131 73.2148 156.141 74.7833 156.891 76.5883C157.642 78.3932 158.017 80.3107 158.017 82.3333C158.017 84.3558 157.642 86.2621 156.891 88.052C156.144 89.8344 155.131 91.3842 153.859 92.6938C152.59 94.0034 151.1 95.0428 149.389 95.8196C147.122 96.844 145.081 96.9791 143.873 96.9791C140.848 96.9791 137.819 96.9829 134.794 96.9866C133.211 98.2662 131.623 99.5458 130.036 100.825C136.01 102.72 140.945 103.403 143.873 103.351C146.826 103.298 149.205 102.612 149.205 102.612C150.061 102.364 150.902 102.056 151.723 101.685C154.182 100.574 156.339 99.0655 158.19 97.163C160.04 95.2605 161.5 93.0353 162.577 90.4949C163.654 87.9582 164.194 85.2377 164.194 82.3408C164.194 80.0818 163.856 77.9391 163.181 75.9128L163.177 75.9053Z" fill="#F41849"/>
</svg>
